<svg width="1964" height="1263" viewBox="0 0 1964 1263" fill="none" xmlns="http://www.w3.org/2000/svg">
<path d="M373.567 1262.56H224.129C181.889 1262.56 141.378 1245.78 111.509 1215.91C81.6407 1186.04 64.8607 1145.53 64.8607 1103.29V699.024C64.8607 656.783 81.6407 616.273 111.509 586.404C141.378 556.535 181.889 539.755 224.129 539.755C266.37 539.755 306.88 556.535 336.749 586.404C366.618 616.273 383.398 656.783 383.398 699.024V944.023C465.329 941.299 542.836 906.196 598.925 846.411C655.013 786.627 685.105 707.04 682.603 625.102C677.111 456.497 531.957 325.842 363.297 325.842H231.489C170.094 325.842 111.214 301.453 67.8014 258.04C24.3889 214.628 0 155.748 0 94.3536V7.52448H358.299C698.145 7.52448 988.014 271.141 1000.87 610.932C1004 695.299 990.103 779.434 959.998 858.31C929.893 937.186 884.2 1009.19 825.648 1070.01C767.096 1130.83 696.886 1179.23 619.212 1212.31C541.538 1245.4 457.993 1262.49 373.567 1262.56Z" fill="white"/>
<path d="M1389.49 867.849C1389.49 779.948 1318.23 708.691 1230.33 708.691C1142.43 708.691 1071.17 779.948 1071.17 867.849V1096.1C1071.17 1184 1142.43 1255.26 1230.33 1255.26C1318.23 1255.26 1389.49 1184 1389.49 1096.1V867.849Z" fill="white"/>
<path d="M1230.32 315.572C1317.46 315.572 1388.1 244.929 1388.1 157.786C1388.1 70.6438 1317.46 0.000854492 1230.32 0.000854492C1143.18 0.000854492 1072.53 70.6438 1072.53 157.786C1072.53 244.929 1143.18 315.572 1230.32 315.572Z" fill="white"/>
<path d="M1804.84 1253.06C1777.63 1253.05 1750.87 1246.07 1727.13 1232.78C1703.38 1219.5 1683.43 1200.35 1669.19 1177.16L1296.61 568.699C1274.67 532.736 1267.86 489.542 1277.69 448.576C1287.52 407.609 1313.18 372.205 1349.06 350.116C1385.08 328.091 1428.38 321.273 1469.43 331.16C1510.48 341.046 1545.92 366.829 1567.97 402.84L1645.68 530.255V231.489C1645.68 170.095 1670.07 111.214 1713.48 67.8015C1756.9 24.389 1815.78 0 1877.17 0H1964V1089.01C1964 1143.93 1938.52 1197.48 1892.27 1227.14C1866.23 1244 1835.87 1253 1804.84 1253.06Z" fill="white"/>
</svg>
